<svg width="20" height="18" viewBox="0 0 20 18" fill="none" xmlns="http://www.w3.org/2000/svg">
<path d="M19.075 16.1905L18.8672 16.0072C18.2778 15.482 17.7618 14.8797 17.3333 14.2167C16.8654 13.3016 16.5849 12.3022 16.5083 11.2772V8.25833C16.5059 7.89163 16.4731 7.52576 16.4106 7.16444C15.3754 6.95167 14.4456 6.38773 13.7785 5.56808C13.1114 4.74844 12.7481 3.72345 12.75 2.66666V2.28166C12.112 1.96767 11.4264 1.76118 10.7211 1.67055V0.90055C10.7211 0.684178 10.6352 0.476667 10.4822 0.323669C10.3292 0.17067 10.1217 0.0847168 9.90528 0.0847168C9.68891 0.0847168 9.4814 0.17067 9.3284 0.323669C9.1754 0.476667 9.08945 0.684178 9.08945 0.90055V1.70111C7.51016 1.92389 6.0648 2.7105 5.02019 3.91573C3.97559 5.12096 3.40228 6.66341 3.40611 8.25833V11.2772C3.32957 12.3022 3.04909 13.3016 2.58111 14.2167C2.15999 14.8781 1.65234 15.4803 1.07167 16.0072L0.863892 16.1905V17.9139H19.075V16.1905Z" fill="#333333"/>
</svg>
